<?xml version="1.0" encoding="UTF-8"?>
<svg id="Layer_2" data-name="Layer 2" xmlns="http://www.w3.org/2000/svg" viewBox="0 0 332.07 332.07">
  <defs>
    <style>
      .cls-1 {
        fill: #333;
        stroke: #000;
        stroke-miterlimit: 10;
        stroke-width: .25px;
      }

      .cls-2 {
        fill: #fff;
      }
    </style>
  </defs>
  <g id="Layer_1-2" data-name="Layer 1">
    <rect class="cls-1" x=".12" y=".12" width="331.82" height="331.82" rx="50.4" ry="50.4"/>
    <path class="cls-2" d="M42.18,156.88c1.52-4.99,4.91-8.73,10.03-10.05l39.24-.19,39.84-84.27c5.78-9.97,19.21-8.88,23.28,1.71l38.58,161.99,27.81-58.07c2.48-4.43,5.9-7.3,11.12-7.75,14.78-1.28,31.44.95,46.42.07,14.18,2.09,15.48,20.79,1.77,24.9l-39.73.44-40.71,85.58c-6.27,8.44-19.07,6.64-22.42-3.54l-38.47-161.62-29.52,60.71c-2.49,3.05-5.43,4.77-9.41,5.11-14.78,1.28-31.44-.95-46.42-.07-5.93-.75-9.59-4.64-11.42-10.11v-4.84Z"/>
  </g>
</svg>